<?xml version="1.0" encoding="UTF-8" standalone="no"?>
<!-- Creator: fig2dev Version 3.2 Patchlevel 5 -->

<!-- CreationDate: Wed Jul  8 21:20:57 2009 -->

<!-- Magnification: 1.000 -->

<svg
   xmlns:dc="http://purl.org/dc/elements/1.1/"
   xmlns:cc="http://creativecommons.org/ns#"
   xmlns:rdf="http://www.w3.org/1999/02/22-rdf-syntax-ns#"
   xmlns:svg="http://www.w3.org/2000/svg"
   xmlns="http://www.w3.org/2000/svg"
   xmlns:sodipodi="http://sodipodi.sourceforge.net/DTD/sodipodi-0.dtd"
   xmlns:inkscape="http://www.inkscape.org/namespaces/inkscape"
   width="5.1in"
   height="1.8in"
   viewBox="775 697 6142 2204"
   id="svg2"
   version="1.1"
   inkscape:version="0.48.2 r9819"
   sodipodi:docname="grain-inscribed-exscribed.svg"
   inkscape:output_extension="org.inkscape.output.svg.inkscape">
  <metadata
     id="metadata64">
    <rdf:RDF>
      <cc:Work
         rdf:about="">
        <dc:format>image/svg+xml</dc:format>
        <dc:type
           rdf:resource="http://purl.org/dc/dcmitype/StillImage" />
        <dc:title />
      </cc:Work>
    </rdf:RDF>
  </metadata>
  <defs
     id="defs62">
    <inkscape:path-effect
       is_visible="true"
       id="path-effect3873"
       effect="spiro" />
    <inkscape:path-effect
       is_visible="true"
       id="path-effect3871"
       effect="spiro" />
    <inkscape:path-effect
       is_visible="true"
       id="path-effect5604"
       effect="spiro" />
    <inkscape:path-effect
       effect="spiro"
       id="path-effect5600"
       is_visible="true" />
    <marker
       inkscape:stockid="Arrow1Lend"
       orient="auto"
       refY="0.0"
       refX="0.0"
       id="Arrow1Lend"
       style="overflow:visible;">
      <path
         id="path4974"
         d="M 0.0,0.0 L 5.0,-5.0 L -12.5,0.0 L 5.0,5.0 L 0.0,0.0 z "
         style="fill-rule:evenodd;stroke:#000000;stroke-width:1.0pt;marker-start:none;"
         transform="scale(0.8) rotate(180) translate(12.5,0)" />
    </marker>
    <marker
       inkscape:stockid="Arrow1Mend"
       orient="auto"
       refY="0.0"
       refX="0.0"
       id="Arrow1Mend"
       style="overflow:visible;">
      <path
         id="path4980"
         d="M 0.0,0.0 L 5.0,-5.0 L -12.5,0.0 L 5.0,5.0 L 0.0,0.0 z "
         style="fill-rule:evenodd;stroke:#000000;stroke-width:1.0pt;marker-start:none;"
         transform="scale(0.4) rotate(180) translate(10,0)" />
    </marker>
    <inkscape:path-effect
       effect="spiro"
       id="path-effect4966"
       is_visible="true" />
    <inkscape:path-effect
       effect="spiro"
       id="path-effect4158"
       is_visible="true" />
    <inkscape:path-effect
       effect="spiro"
       id="path-effect4154"
       is_visible="true" />
    <inkscape:perspective
       sodipodi:type="inkscape:persp3d"
       inkscape:vp_x="0 : 81 : 1"
       inkscape:vp_y="0 : 1000 : 0"
       inkscape:vp_z="459 : 81 : 1"
       inkscape:persp3d-origin="229.5 : 54 : 1"
       id="perspective66" />
  </defs>
  <sodipodi:namedview
     pagecolor="#ffffff"
     bordercolor="#666666"
     borderopacity="1"
     objecttolerance="10"
     gridtolerance="10"
     guidetolerance="10"
     inkscape:pageopacity="0"
     inkscape:pageshadow="2"
     inkscape:window-width="1280"
     inkscape:window-height="750"
     id="namedview60"
     showgrid="false"
     inkscape:zoom="2.5379181"
     inkscape:cx="203.13711"
     inkscape:cy="85.065926"
     inkscape:window-x="0"
     inkscape:window-y="31"
     inkscape:window-maximized="1"
     inkscape:current-layer="svg2"
     inkscape:snap-object-midpoints="true"
     inkscape:object-paths="true"
     inkscape:snap-nodes="true"
     inkscape:snap-global="true" />
  <path
     style="color:#000000;fill:#ff8080;fill-opacity:1;fill-rule:nonzero;stroke:#000000;stroke-width:14.99999905;stroke-linecap:butt;stroke-linejoin:bevel;stroke-miterlimit:4;stroke-opacity:1;stroke-dasharray:none;stroke-dashoffset:0;marker:none;visibility:visible;display:inline;overflow:visible;enable-background:accumulate"
     d="m 2674.0383,1140.9245 c -70.0411,-15.8971 -142.8916,-12.9006 -214.5003,-7.3628 -71.6088,5.5378 -143.5136,13.5347 -215.0705,7.3628 -98.086,-8.4601 -191.6958,-43.1554 -287.2777,-66.7463 -47.791,-11.7955 -96.4857,-20.8701 -145.6875,-22.3862 -49.2017,-1.5161 -99.072,4.7069 -144.91,22.651 -74.1062,29.0103 -134.9358,88.6429 -168.9731,160.5789 -34.0374,71.936 -41.7508,155.3215 -25.3565,233.1968 17.2086,81.7435 59.8719,156.592 113.6817,220.4875 53.8099,63.8955 118.6249,117.6029 185.3572,167.8516 133.4646,100.4975 279.9712,192.5634 370.8869,332.7307 41.9302,64.645 70.224,137.0637 107.3928,204.5588 15.4079,27.9792 32.5603,55.3892 55.1945,77.9266 22.6341,22.5375 51.296,40.0577 82.8819,44.8086 28.1751,4.2379 57.5219,-1.9991 82.4707,-15.7597 24.9488,-13.7605 45.5632,-34.7864 60.4514,-59.0792 29.7763,-48.5855 36.3019,-108.2467 32.0382,-165.0711 -4.2638,-56.8243 -18.4696,-112.382 -27.2141,-168.6912 -8.7446,-56.3091 -11.8369,-115.0498 5.6719,-169.2773 14.6031,-45.2281 42.9304,-85.0659 76.2785,-118.9293 33.3481,-33.8634 71.7677,-62.2454 110.1775,-90.2366 38.4099,-27.9913 77.1409,-55.872 111.308,-88.9089 34.1671,-33.0369 63.8681,-71.6978 80.6675,-116.1569 15.2033,-40.2351 19.3662,-84.4338 13.0516,-126.9795 -6.3146,-42.5456 -22.9926,-83.3888 -47.3391,-118.8466 -48.6929,-70.9156 -127.2917,-118.6814 -211.1815,-137.7217"
     id="path4156"
     inkscape:path-effect="#path-effect4158"
     inkscape:original-d="m 2674.0383,1140.9245 c -125.6104,-68.7426 -286.6153,8.1962 -429.5708,0 -193.5777,-11.0984 -407.6145,-159.25477 -577.8752,-66.4815 -128.5296,70.0342 -215.4944,248.9416 -194.3296,393.7757 47.4395,324.6353 565.1035,420.6016 669.9258,721.0698 16.9292,48.5265 331.1087,168.5497 107.3928,204.5588 -165.4811,26.6356 79.1089,140.4815 138.0764,122.7352 190.8429,-57.4342 57.89,-402.9661 153.4181,-577.8785 89.6443,-164.139 362.4648,-227.891 378.4315,-414.2317 12.9587,-151.2368 -112.3148,-310.6765 -245.469,-383.5478 z"
     inkscape:connector-curvature="0"
     sodipodi:nodetypes="aaaassaaaa" />
  <path
     sodipodi:type="arc"
     style="color:#000000;fill:none;stroke:#000000;stroke-width:0.51499999;stroke-linecap:butt;stroke-linejoin:miter;stroke-miterlimit:4;stroke-opacity:1;stroke-dasharray:1.03000002, 2.06000004;stroke-dashoffset:0;marker:none;visibility:visible;display:inline;overflow:visible;enable-background:accumulate"
     id="path4177"
     sodipodi:cx="163.87219"
     sodipodi:cy="96.738342"
     sodipodi:rx="33.348866"
     sodipodi:ry="33.348866"
     d="m 197.22106,96.738342 a 33.348866,33.348866 0 1 1 -66.69773,0 33.348866,33.348866 0 1 1 66.69773,0 z"
     transform="matrix(13.604938,0,0,13.604938,-30.459877,286.73037)" />
  <path
     style="color:#000000;fill:none;stroke:#000000;stroke-width:7.00654268;stroke-linecap:butt;stroke-linejoin:miter;stroke-miterlimit:4;stroke-opacity:1;stroke-dasharray:none;stroke-dashoffset:0;marker:none;marker-end:url(#Arrow1Lend);visibility:visible;display:inline;overflow:visible;enable-background:accumulate"
     d="M 2199.0112,1602.8495 1866.7878,1293.8489"
     id="path4964"
     inkscape:path-effect="#path-effect4966"
     inkscape:original-d="M 2199.0112,1602.8495 1866.7878,1293.8489"
     inkscape:connector-curvature="0"
     sodipodi:nodetypes="cc" />
  <g
     id="g5606"
     transform="translate(-1199.1523,573.12896)">
    <path
       transform="matrix(13.604938,0,0,13.604938,723.66667,697)"
       inkscape:connector-curvature="0"
       inkscape:original-d="m 196.5828,21.583716 0,5.744303"
       inkscape:path-effect="#path-effect5600"
       id="path5598"
       d="m 196.5828,21.583716 0,5.744303"
       style="color:#000000;fill:none;stroke:#000000;stroke-width:0.51499999;stroke-linecap:butt;stroke-linejoin:miter;stroke-miterlimit:4;stroke-opacity:1;stroke-dasharray:none;stroke-dashoffset:0;marker:none;visibility:visible;display:inline;overflow:visible;enable-background:accumulate" />
    <path
       style="color:#000000;fill:none;stroke:#000000;stroke-width:7.00654268;stroke-linecap:butt;stroke-linejoin:miter;stroke-miterlimit:4;stroke-opacity:1;stroke-dasharray:none;stroke-dashoffset:0;marker:none;visibility:visible;display:inline;overflow:visible;enable-background:accumulate"
       d="m 3437.2389,1029.7206 -78.1509,0"
       id="path5602"
       inkscape:path-effect="#path-effect5604"
       inkscape:original-d="m 3437.2389,1029.7206 -78.1509,0"
       inkscape:connector-curvature="0" />
  </g>
  <text
     xml:space="preserve"
     style="font-size:163.25926208px;font-style:normal;font-variant:normal;font-weight:normal;font-stretch:normal;text-align:start;line-height:100%;letter-spacing:0px;word-spacing:0px;writing-mode:lr-tb;text-anchor:start;fill:#000000;fill-opacity:1;stroke:none;font-family:Linux Libertine O;-inkscape-font-specification:Linux Libertine O"
     x="2106.0127"
     y="1778.4471"
     id="text5610"
     sodipodi:linespacing="100%"><tspan
       sodipodi:role="line"
       id="tspan5612"
       x="2106.0127"
       y="1778.4471">(<tspan
   style="font-size:163.25926208px;font-style:italic"
   id="tspan5614">x</tspan><tspan
   style="font-size:106.12001038px;baseline-shift:sub"
   id="tspan5636">i</tspan>, <tspan
   style="font-size:163.25926208px;font-style:italic"
   id="tspan5632">y</tspan><tspan
   style="font-size:106.12001038px;baseline-shift:sub"
   id="tspan5640">i</tspan>)</tspan></text>
  <text
     sodipodi:linespacing="100%"
     id="text5642"
     y="1406.9718"
     x="2049.1543"
     style="font-size:163.25926208px;font-style:normal;font-variant:normal;font-weight:normal;font-stretch:normal;text-align:start;line-height:100%;letter-spacing:0px;word-spacing:0px;writing-mode:lr-tb;text-anchor:start;fill:#000000;fill-opacity:1;stroke:none;font-family:Linux Libertine O;-inkscape-font-specification:Linux Libertine O"
     xml:space="preserve"><tspan
       y="1406.9718"
       x="2049.1543"
       id="tspan5644"
       sodipodi:role="line"><tspan
         id="tspan5646"
         style="font-size:163.25926208px;font-style:italic">R</tspan><tspan
         id="tspan5648"
         style="font-size:106.12001038px;baseline-shift:sub">i</tspan></tspan></text>
  <g
     inkscape:groupmode="layer"
     id="layer1"
     inkscape:label="Layer" />
  <path
     sodipodi:nodetypes="aaaassaaaa"
     inkscape:connector-curvature="0"
     inkscape:original-d="m 4630.9551,1140.9245 c -125.6104,-68.7426 -286.6153,8.1962 -429.5708,0 -193.5777,-11.0984 -407.6145,-159.25477 -577.8752,-66.4815 -128.5296,70.0342 -215.4944,248.9416 -194.3296,393.7757 47.4395,324.6353 565.1035,420.6016 669.9258,721.0698 16.9292,48.5265 331.1087,168.5497 107.3928,204.5588 -165.4811,26.6356 79.1089,140.4815 138.0764,122.7352 190.8429,-57.4342 57.89,-402.9661 153.4181,-577.8785 89.6443,-164.139 362.4648,-227.891 378.4315,-414.2317 12.9587,-151.2368 -112.3148,-310.6765 -245.469,-383.5478 z"
     inkscape:path-effect="#path-effect3871"
     id="path3839"
     d="m 4630.9551,1140.9245 c -70.0411,-15.8971 -142.8916,-12.9006 -214.5003,-7.3628 -71.6088,5.5378 -143.5136,13.5347 -215.0705,7.3628 -98.086,-8.4601 -191.6958,-43.1554 -287.2777,-66.7463 -47.791,-11.7955 -96.4857,-20.8701 -145.6875,-22.3862 -49.2017,-1.5161 -99.072,4.7069 -144.91,22.651 -74.1062,29.0103 -134.9358,88.6429 -168.9731,160.5789 -34.0374,71.936 -41.7508,155.3215 -25.3565,233.1968 17.2086,81.7435 59.8719,156.592 113.6817,220.4875 53.8099,63.8955 118.6249,117.6029 185.3572,167.8516 133.4646,100.4975 279.9712,192.5634 370.8869,332.7307 41.9302,64.645 70.224,137.0637 107.3928,204.5588 15.4079,27.9792 32.5603,55.3892 55.1945,77.9266 22.6341,22.5375 51.296,40.0577 82.8819,44.8086 28.1751,4.2379 57.5219,-1.9991 82.4707,-15.7597 24.9488,-13.7605 45.5632,-34.7864 60.4514,-59.0792 29.7763,-48.5855 36.3019,-108.2467 32.0382,-165.0711 -4.2638,-56.8243 -18.4696,-112.382 -27.2141,-168.6912 -8.7446,-56.3091 -11.8369,-115.0498 5.6719,-169.2773 14.6031,-45.2281 42.9304,-85.0659 76.2785,-118.9293 33.3481,-33.8634 71.7677,-62.2454 110.1775,-90.2366 38.4099,-27.9913 77.1409,-55.872 111.308,-88.9089 34.1671,-33.0369 63.8681,-71.6978 80.6675,-116.1569 15.2033,-40.2351 19.3662,-84.4338 13.0516,-126.9795 -6.3146,-42.5456 -22.9926,-83.3888 -47.3391,-118.8466 -48.6929,-70.9156 -127.2917,-118.6814 -211.1815,-137.7217"
     style="color:#000000;fill:#ff8080;fill-opacity:1;fill-rule:nonzero;stroke:#000000;stroke-width:14.99999905;stroke-linecap:butt;stroke-linejoin:bevel;stroke-miterlimit:4;stroke-opacity:1;stroke-dasharray:none;stroke-dashoffset:0;marker:none;visibility:visible;display:inline;overflow:visible;enable-background:accumulate" />
  <path
     transform="matrix(25.226378,0,0,25.226378,-2.4479424,-721.98818)"
     d="m 197.22106,96.738342 a 33.348866,33.348866 0 1 1 -66.69773,0 33.348866,33.348866 0 1 1 66.69773,0 z"
     sodipodi:ry="33.348866"
     sodipodi:rx="33.348866"
     sodipodi:cy="96.738342"
     sodipodi:cx="163.87219"
     id="path3841"
     style="color:#000000;fill:none;stroke:#000000;stroke-width:0.27774668;stroke-linecap:butt;stroke-linejoin:miter;stroke-miterlimit:4;stroke-opacity:1;stroke-dasharray:0.55549339, 1.11098679;stroke-dashoffset:0;marker:none;visibility:visible;display:inline;overflow:visible;enable-background:accumulate"
     sodipodi:type="arc" />
  <path
     sodipodi:nodetypes="cc"
     inkscape:connector-curvature="0"
     inkscape:original-d="M 4156.6089,1745.658 3511.2623,1149.9442"
     inkscape:path-effect="#path-effect3873"
     id="path3843"
     d="M 4156.6089,1745.658 3511.2623,1149.9442"
     style="color:#000000;fill:none;stroke:#000000;stroke-width:7.00654268;stroke-linecap:butt;stroke-linejoin:miter;stroke-miterlimit:4;stroke-opacity:1;stroke-dasharray:none;stroke-dashoffset:0;marker:none;marker-end:url(#Arrow1Lend);visibility:visible;display:inline;overflow:visible;enable-background:accumulate" />
  <g
     transform="translate(758.44541,715.93741)"
     id="g3845">
    <path
       style="color:#000000;fill:none;stroke:#000000;stroke-width:0.51499999;stroke-linecap:butt;stroke-linejoin:miter;stroke-miterlimit:4;stroke-opacity:1;stroke-dasharray:none;stroke-dashoffset:0;marker:none;visibility:visible;display:inline;overflow:visible;enable-background:accumulate"
       d="m 196.5828,21.583716 0,5.744303"
       id="path3847"
       inkscape:path-effect="#path-effect5600"
       inkscape:original-d="m 196.5828,21.583716 0,5.744303"
       inkscape:connector-curvature="0"
       transform="matrix(13.604938,0,0,13.604938,723.66667,697)" />
    <path
       inkscape:connector-curvature="0"
       inkscape:original-d="m 3437.2389,1029.7206 -78.1509,0"
       inkscape:path-effect="#path-effect5604"
       id="path3849"
       d="m 3437.2389,1029.7206 -78.1509,0"
       style="color:#000000;fill:none;stroke:#000000;stroke-width:7.00654268;stroke-linecap:butt;stroke-linejoin:miter;stroke-miterlimit:4;stroke-opacity:1;stroke-dasharray:none;stroke-dashoffset:0;marker:none;visibility:visible;display:inline;overflow:visible;enable-background:accumulate" />
  </g>
  <text
     sodipodi:linespacing="100%"
     id="text3851"
     y="1922.4885"
     x="4006.071"
     style="font-size:163.25926208px;font-style:normal;font-variant:normal;font-weight:normal;font-stretch:normal;text-align:start;line-height:100%;letter-spacing:0px;word-spacing:0px;writing-mode:lr-tb;text-anchor:start;fill:#000000;fill-opacity:1;stroke:none;font-family:Linux Libertine O;-inkscape-font-specification:Linux Libertine O"
     xml:space="preserve"><tspan
       y="1922.4885"
       x="4006.071"
       id="tspan3853"
       sodipodi:role="line">(<tspan
   id="tspan3855"
   style="font-size:163.25926208px;font-style:italic">x</tspan><tspan
   id="tspan3857"
   style="font-size:106.12001038px;baseline-shift:sub">e</tspan>, <tspan
   id="tspan3859"
   style="font-size:163.25926208px;font-style:italic">y</tspan><tspan
   id="tspan3861"
   style="font-size:106.12001038px;baseline-shift:sub">e</tspan>)</tspan></text>
  <text
     xml:space="preserve"
     style="font-size:163.25926208px;font-style:normal;font-variant:normal;font-weight:normal;font-stretch:normal;text-align:start;line-height:100%;letter-spacing:0px;word-spacing:0px;writing-mode:lr-tb;text-anchor:start;fill:#000000;fill-opacity:1;stroke:none;font-family:Linux Libertine O;-inkscape-font-specification:Linux Libertine O"
     x="3827.9146"
     y="1346.3228"
     id="text3863"
     sodipodi:linespacing="100%"><tspan
       sodipodi:role="line"
       id="tspan3865"
       x="3827.9146"
       y="1346.3228"><tspan
         style="font-size:163.25926208px;font-style:italic"
         id="tspan3867">R</tspan><tspan
         style="font-size:106.12001038px;baseline-shift:sub"
         id="tspan3869">e</tspan></tspan></text>
</svg>
